# xmcd CD database file
#
# Track frame offsets:
#	187
#	19770
#	38967
#	55692
#	73957
#	93562
#	112227
#	131075
#	149427
#	168225
#
# Disc length: 2496 seconds
#
# Revision: 0
# Processed by: cddbd v1.5PL3 Copyright (c) Steve Scherf et al.
# Submitted via: CDex 1.51
#
DISCID=9509be0a
DTITLE=神山純一 - 氷の音楽
DYEAR=1993
DGENRE=Instrumental
TTITLE0=フリージング ブリーズ
TTITLE1=ラグジュアリーな午後
TTITLE2=おしゃべりなトフィー
TTITLE3=おだやかな時間
TTITLE4=フェアリー テイル
TTITLE5=眠りの精
TTITLE6=白い天使たち
TTITLE7=日曜の雨
TTITLE8=メモワール
TTITLE9=スウィート グラデーション
EXTD=YEAR: 1993
EXTT0=
EXTT1=
EXTT2=
EXTT3=
EXTT4=
EXTT5=
EXTT6=
EXTT7=
EXTT8=
EXTT9=
PLAYORDER=
